<svg width="31" height="30" viewBox="0 0 31 30" fill="none" xmlns="http://www.w3.org/2000/svg">
<path d="M10.4472 1.80005C6.14671 1.80005 2.64722 5.29954 2.64722 9.60005L2.64722 20.4C2.64722 24.7006 6.14671 28.2 10.4472 28.2L21.2472 28.2C25.5477 28.2 29.0472 24.7006 29.0472 20.4L29.0472 9.60005C29.0472 5.29954 25.5477 1.80005 21.2472 1.80005L10.4472 1.80005ZM10.4472 3.00005L21.2472 3.00005C24.8991 3.00005 27.8472 5.94816 27.8472 9.60005L27.8472 20.4C27.8472 24.0519 24.8991 27 21.2472 27L10.4472 27C6.79533 27 3.84722 24.0519 3.84722 20.4L3.84722 9.60005C3.84722 5.94816 6.79533 3.00005 10.4472 3.00005ZM23.0472 6.60005C22.729 6.60005 22.4237 6.72648 22.1987 6.95152C21.9736 7.17656 21.8472 7.48179 21.8472 7.80005C21.8472 8.11831 21.9736 8.42353 22.1987 8.64858C22.4237 8.87362 22.729 9.00005 23.0472 9.00005C23.3655 9.00005 23.6707 8.87362 23.8957 8.64858C24.1208 8.42353 24.2472 8.11831 24.2472 7.80005C24.2472 7.48179 24.1208 7.17656 23.8957 6.95152C23.6707 6.72648 23.3655 6.60005 23.0472 6.60005ZM15.8472 8.40005C12.2092 8.40005 9.24722 11.3621 9.24722 15C9.24722 18.638 12.2092 21.6 15.8472 21.6C19.4852 21.6 22.4472 18.638 22.4472 15C22.4472 11.3621 19.4852 8.40005 15.8472 8.40005ZM15.8472 9.60005C18.8367 9.60005 21.2472 12.0106 21.2472 15C21.2472 17.9895 18.8367 20.4 15.8472 20.4C12.8578 20.4 10.4472 17.9895 10.4472 15C10.4472 12.0106 12.8578 9.60005 15.8472 9.60005Z" fill="white"/>
</svg>
