<svg width="29" height="29" viewBox="0 0 29 29" fill="none" xmlns="http://www.w3.org/2000/svg">
<path fill-rule="evenodd" clip-rule="evenodd" d="M15.7115 21.8437L18.8023 18.7529C19.145 18.4102 19.684 18.3625 20.0815 18.6398L24.5017 21.7226C25.0123 22.0787 25.0769 22.8098 24.6368 23.25L23.8559 24.0308C23.1456 24.7411 22.1287 25.0487 21.1694 24.7511C18.8258 24.024 14.2535 22.2271 10.486 18.4596C6.71847 14.6921 4.92154 10.1197 4.19447 7.77619C3.89684 6.81684 4.20447 5.79993 4.91473 5.08967L5.6956 4.30879C6.13577 3.86862 6.86682 3.93327 7.22292 4.44385L10.3058 8.86409C10.583 9.26156 10.5354 9.80059 10.1927 10.1432L7.1019 13.234" fill="white"/>
</svg>
