<svg width="31" height="30" viewBox="0 0 31 30" fill="none" xmlns="http://www.w3.org/2000/svg">
<g clip-path="url(#clip0_1_72)">
<path d="M21.3784 3.28125C17.7901 3.28125 14.8721 6.19922 14.8721 9.7875C14.8721 10.0031 14.926 10.2141 14.9471 10.425C10.5104 10.0008 6.58696 7.86328 3.92212 4.59375C3.7979 4.43672 3.60571 4.35234 3.40415 4.36641C3.20493 4.38047 3.02681 4.49531 2.92837 4.66875C2.36821 5.63203 2.04712 6.74062 2.04712 7.93125C2.04712 9.37266 2.56275 10.6922 3.35962 11.775C3.20493 11.707 3.03618 11.6695 2.89087 11.5875C2.70571 11.4891 2.48306 11.4937 2.30259 11.6016C2.12212 11.7094 2.01196 11.9039 2.00962 12.1125V12.1875C2.00962 14.3977 3.15337 16.3172 4.84087 17.4937C4.82212 17.4914 4.80337 17.4984 4.78462 17.4937C4.57837 17.4586 4.36978 17.5312 4.2315 17.6883C4.09321 17.8453 4.04868 18.0633 4.10962 18.2625C4.77993 20.3461 6.49087 21.9375 8.60962 22.5187C6.92212 23.5219 4.96509 24.1125 2.85337 24.1125C2.39634 24.1125 1.95806 24.0891 1.52212 24.0375C1.24087 24 0.971339 24.1641 0.877589 24.4312C0.781496 24.6984 0.886964 24.9961 1.12837 25.1437C3.8354 26.8805 7.04868 27.9 10.5034 27.9C16.1026 27.9 20.4948 25.5609 23.4409 22.2187C26.387 18.8766 27.9221 14.5359 27.9221 10.4812C27.9221 10.3102 27.9081 10.1437 27.9034 9.975C29.0026 9.13359 29.9846 8.14687 30.7534 6.99375C30.9057 6.77109 30.8893 6.47344 30.7135 6.26719C30.5401 6.06094 30.2471 5.99766 30.0034 6.1125C29.694 6.25078 29.3331 6.26484 29.0096 6.375C29.4362 5.80547 29.8018 5.19141 30.0221 4.5C30.0971 4.26328 30.0151 4.00312 29.8206 3.84844C29.626 3.69609 29.3542 3.67734 29.1409 3.80625C28.1167 4.41328 26.9823 4.83984 25.7846 5.1C24.6221 4.0125 23.0917 3.28125 21.3784 3.28125ZM21.3784 4.48125C22.9088 4.48125 24.2917 5.13516 25.2596 6.16875C25.4049 6.31875 25.6182 6.38203 25.8221 6.3375C26.6049 6.18281 27.3479 5.95547 28.0721 5.6625C27.6549 6.225 27.1393 6.70547 26.5346 7.06875C26.2604 7.20234 26.1315 7.51875 26.2323 7.80703C26.3307 8.09297 26.6307 8.25937 26.9284 8.19375C27.5284 8.12109 28.0627 7.87734 28.6346 7.725C28.1213 8.28047 27.5588 8.78203 26.9471 9.225C26.7807 9.34687 26.6893 9.54375 26.7034 9.75C26.7127 9.99375 26.7221 10.2352 26.7221 10.4812C26.7221 14.2312 25.2831 18.3023 22.5409 21.4125C19.7987 24.5227 15.7721 26.7 10.5034 26.7C8.1104 26.7 5.85103 26.1703 3.80962 25.2375C6.34087 25.043 8.67525 24.1477 10.5596 22.6687C10.7565 22.5117 10.8338 22.2492 10.7542 22.0102C10.6745 21.7711 10.4542 21.607 10.2034 21.6C8.22525 21.5648 6.56821 20.4141 5.68462 18.7875C5.71743 18.7875 5.74556 18.7875 5.77837 18.7875C6.37134 18.7875 6.95728 18.7125 7.50337 18.5625C7.76587 18.4852 7.94634 18.2414 7.93696 17.9672C7.92759 17.693 7.73306 17.4586 7.46587 17.4C5.33071 16.9687 3.72993 15.2297 3.35962 13.0687C3.96431 13.2773 4.58306 13.4414 5.25337 13.4625C5.52759 13.4789 5.77603 13.3078 5.8604 13.0477C5.94478 12.7875 5.84165 12.5016 5.60962 12.3562C4.18462 11.4023 3.24712 9.77812 3.24712 7.93125C3.24712 7.24687 3.42525 6.61875 3.65962 6.01875C6.65962 9.31172 10.8596 11.4984 15.6034 11.7375C15.7909 11.7469 15.9737 11.6695 16.0956 11.5266C16.2174 11.3812 16.2643 11.1891 16.2221 11.0062C16.1307 10.6172 16.0721 10.2047 16.0721 9.7875C16.0721 6.84844 18.4393 4.48125 21.3784 4.48125Z" fill="white"/>
</g>
<defs>
<clipPath id="clip0_1_72">
<rect width="30" height="30" fill="white" transform="translate(0.847168)"/>
</clipPath>
</defs>
</svg>
