<svg width="35" height="34" viewBox="0 0 35 34" fill="none" xmlns="http://www.w3.org/2000/svg">
<path d="M17.4408 6.12012C12.9517 6.12012 8.73627 6.46012 6.49174 6.93559C4.99627 7.27559 3.70268 8.29559 3.43174 9.86012C3.1608 11.4911 2.88721 13.9401 2.88721 17.0001C2.88721 20.0601 3.15814 22.4401 3.49814 24.1401C3.77174 25.6356 5.06268 26.7246 6.55815 27.0646C8.9408 27.5401 13.0181 27.8801 17.5072 27.8801C21.9963 27.8801 26.0736 27.5401 28.4536 27.0646C29.9517 26.7246 31.2427 25.7046 31.5136 24.1401C31.7872 22.4401 32.1272 19.9937 32.1936 16.9337C32.1936 13.8737 31.8536 11.4246 31.5136 9.72465C31.2427 8.22918 29.9517 7.14012 28.4536 6.80012C26.0736 6.46012 21.9272 6.12012 17.4408 6.12012ZM17.4408 7.48012C22.3363 7.48012 26.2781 7.88652 28.1827 8.22652C29.2027 8.50012 30.0181 9.18012 30.1536 10.0646C30.5627 12.2401 30.8336 14.5537 30.8336 16.9337C30.7672 19.8556 30.4272 22.2356 30.1536 23.9356C29.9517 25.2265 28.5917 25.6356 28.1827 25.7737C25.7336 26.2492 21.6536 26.5865 17.5736 26.5865C13.4936 26.5865 9.34721 26.3156 6.96721 25.7737C5.94721 25.5001 5.13174 24.8201 4.99627 23.9356C4.45174 22.0311 4.24721 19.5156 4.24721 17.0001C4.24721 13.8711 4.5208 11.5601 4.79174 10.1337C4.99627 8.84012 6.42268 8.43105 6.76268 8.29559C9.00721 7.82012 13.1563 7.48012 17.4408 7.48012ZM13.7672 11.5601L13.7672 22.4401L23.2872 17.0001L13.7672 11.5601ZM15.1272 13.8737L20.5672 17.0001L15.1272 20.1265L15.1272 13.8737Z" fill="white"/>
</svg>
